<?xml version="1.0" standalone="no"?>
<!DOCTYPE svg PUBLIC "-//W3C//DTD SVG 20010904//EN"
 "http://www.w3.org/TR/2001/REC-SVG-20010904/DTD/svg10.dtd">
<svg version="1.0" xmlns="http://www.w3.org/2000/svg"
 width="144.000000pt" height="144.000000pt" viewBox="0 0 144.000000 144.000000"
 preserveAspectRatio="xMidYMid meet">
<metadata>
Created by potrace 1.14, written by Peter Selinger 2001-2017
</metadata>
<g transform="translate(0.000000,144.000000) scale(0.100000,-0.100000)"
fill="#000000" stroke="none">
<path d="M0 720 l0 -720 720 0 720 0 0 720 0 720 -720 0 -720 0 0 -720z m1150
5 c0 -568 0 -575 -20 -575 -20 0 -20 7 -20 575 0 568 0 575 20 575 20 0 20 -7
20 -575z m-489 386 c156 -47 209 -223 99 -330 l-40 -39 30 -12 c43 -18 97 -82
110 -130 32 -117 -43 -231 -175 -265 -42 -11 -109 -15 -232 -15 l-173 0 0 406
0 407 173 -6 c94 -3 188 -10 208 -16z"/>
<path d="M450 885 l0 -95 60 0 c96 0 140 32 140 100 0 22 -9 41 -29 61 -27 27
-35 29 -100 29 l-71 0 0 -95z"/>
<path d="M452 563 l3 -98 60 -3 c108 -6 175 32 175 100 0 71 -44 98 -160 98
l-81 0 3 -97z"/>
</g>
</svg>
