<svg xmlns="http://www.w3.org/2000/svg" width="32" height="32" viewBox="0 0 32 32">
  <g id="icon-linkedin-b-noborder" transform="translate(-832 -1784.5)">
    <g id="bg" transform="translate(832 1784.5)" fill="none" opacity="0">
      <path d="M16,0A16,16,0,1,1,0,16,16,16,0,0,1,16,0Z" stroke="none"/>
      <path d="M 16 1 C 11.99334907531738 1 8.226520538330078 2.560270309448242 5.393400192260742 5.393400192260742 C 2.560270309448242 8.226520538330078 1 11.99334907531738 1 16 C 1 20.00664901733398 2.560270309448242 23.77347946166992 5.393400192260742 26.60659980773926 C 8.226520538330078 29.43972969055176 11.99334907531738 31 16 31 C 20.00664901733398 31 23.77347946166992 29.43972969055176 26.60659980773926 26.60659980773926 C 29.43972969055176 23.77347946166992 31 20.00664901733398 31 16 C 31 11.99334907531738 29.43972969055176 8.226520538330078 26.60659980773926 5.393400192260742 C 23.77347946166992 2.560270309448242 20.00664901733398 1 16 1 M 16 0 C 24.8365592956543 0 32 7.163440704345703 32 16 C 32 24.8365592956543 24.8365592956543 32 16 32 C 7.163440704345703 32 0 24.8365592956543 0 16 C 0 7.163440704345703 7.163440704345703 0 16 0 Z" stroke="none" fill="#a2a2a2"/>
    </g>
    <g id="group" transform="translate(832.333 1785)">
      <path id="icon" d="M15.349,11.876c.229-.243.416-.49.651-.7a3.7,3.7,0,0,1,2.573-.961,6.185,6.185,0,0,1,1.618.187,3.066,3.066,0,0,1,2.246,2.238,8.856,8.856,0,0,1,.3,2.563c0,1.823-.006,3.643,0,5.466,0,.17-.049.215-.227.213q-1.486-.011-2.972,0c-.176,0-.213-.049-.211-.206q.006-2.6,0-5.2a4.48,4.48,0,0,0-.16-1.292,1.527,1.527,0,0,0-1.685-1.131,1.8,1.8,0,0,0-1.936,1.742,5.9,5.9,0,0,0-.051.813c0,1.686,0,3.372,0,5.058,0,.168-.043.217-.225.215-1-.008-2-.006-2.993,0-.162,0-.207-.039-.207-.193q.006-5.008,0-10.014c0-.166.057-.2.221-.2q1.424.011,2.844,0c.176,0,.221.052.217.209-.01.4,0,.8,0,1.2" transform="translate(1.619 1.619)" fill-rule="evenodd"/>
      <path id="icon-2" data-name="icon" d="M12.353,15.563c0,1.691,0,3.384,0,5.075,0,.188-.055.245-.29.243-1.154-.01-2.311-.008-3.468,0-.187,0-.242-.036-.242-.2q.007-5.139,0-10.276c0-.142.039-.193.221-.191,1.173.006,2.346.008,3.521,0,.224,0,.256.071.256.232-.007,1.706,0,3.411,0,5.117" transform="translate(0 1.619)" fill-rule="evenodd"/>
      <path id="icon-3" data-name="icon" d="M12.357,8.49a2,2,0,1,1-2-1.99,2.007,2.007,0,0,1,2,1.99" transform="translate(0 0)" fill-rule="evenodd"/>
    </g>
  </g>
</svg>
