<svg xmlns="http://www.w3.org/2000/svg" width="32" height="32" viewBox="0 0 32 32">
  <g id="icon-menu" transform="translate(-832 -1784.5)">
    <g id="bg" transform="translate(832 1784.5)" fill="none" opacity="0.001">
      <path d="M16,0A16,16,0,1,1,0,16,16,16,0,0,1,16,0Z" stroke="none"/>
      <path d="M 16 1 C 11.99334907531738 1 8.226520538330078 2.560270309448242 5.393400192260742 5.393400192260742 C 2.560270309448242 8.226520538330078 1 11.99334907531738 1 16 C 1 20.00664901733398 2.560270309448242 23.77347946166992 5.393400192260742 26.60659980773926 C 8.226520538330078 29.43972969055176 11.99334907531738 31 16 31 C 20.00664901733398 31 23.77347946166992 29.43972969055176 26.60659980773926 26.60659980773926 C 29.43972969055176 23.77347946166992 31 20.00664901733398 31 16 C 31 11.99334907531738 29.43972969055176 8.226520538330078 26.60659980773926 5.393400192260742 C 23.77347946166992 2.560270309448242 20.00664901733398 1 16 1 M 16 0 C 24.8365592956543 0 32 7.163440704345703 32 16 C 32 24.8365592956543 24.8365592956543 32 16 32 C 7.163440704345703 32 0 24.8365592956543 0 16 C 0 7.163440704345703 7.163440704345703 0 16 0 Z" stroke="none" fill="#a2a2a2"/>
    </g>
    <g id="group" transform="translate(840 1793.648)">
      <path id="icon" d="M7.994,2.273H1.277A1.19,1.19,0,0,1,.23,1.82,1.131,1.131,0,0,1,.961.027,2.1,2.1,0,0,1,1.292,0Q8.01,0,14.727,0a1.114,1.114,0,0,1,1.2.736,1.116,1.116,0,0,1-.888,1.513,2.551,2.551,0,0,1-.379.023q-3.335,0-6.67,0" transform="translate(-0.006)" fill="#fff"/>
      <path id="icon-2" data-name="icon" d="M8.032,66.593q-3.382,0-6.765,0a1.109,1.109,0,0,1-1.19-.757A1.105,1.105,0,0,1,.95,64.349a2.249,2.249,0,0,1,.355-.028q6.705,0,13.411,0a1.136,1.136,0,0,1,.342,2.247,2.5,2.5,0,0,1-.379.025q-3.323,0-6.646,0" transform="translate(-0.007 -58.605)" fill="#fff"/>
      <path id="icon-3" data-name="icon" d="M7.99,130.912H1.273a1.189,1.189,0,0,1-1.061-.471,1.131,1.131,0,0,1,.742-1.776,2.111,2.111,0,0,1,.331-.026H14.719a1.136,1.136,0,0,1,.32,2.249,2.554,2.554,0,0,1-.379.023q-3.335,0-6.67,0" transform="translate(0 -117.208)" fill="#fff"/>
    </g>
  </g>
</svg>
