<svg xmlns="http://www.w3.org/2000/svg" width="32" height="32" viewBox="0 0 32 32">
  <g id="icon-link-b" transform="translate(-547 -8)">
    <g id="bg" transform="translate(547 8)" fill="none">
      <path d="M16,0A16,16,0,1,1,0,16,16,16,0,0,1,16,0Z" stroke="none"/>
      <path d="M 16 1 C 11.99334907531738 1 8.226520538330078 2.560270309448242 5.393400192260742 5.393400192260742 C 2.560270309448242 8.226520538330078 1 11.99334907531738 1 16 C 1 20.00664901733398 2.560270309448242 23.77347946166992 5.393400192260742 26.60659980773926 C 8.226520538330078 29.43972969055176 11.99334907531738 31 16 31 C 20.00664901733398 31 23.77347946166992 29.43972969055176 26.60659980773926 26.60659980773926 C 29.43972969055176 23.77347946166992 31 20.00664901733398 31 16 C 31 11.99334907531738 29.43972969055176 8.226520538330078 26.60659980773926 5.393400192260742 C 23.77347946166992 2.560270309448242 20.00664901733398 1 16 1 M 16 0 C 24.8365592956543 0 32 7.163440704345703 32 16 C 32 24.8365592956543 24.8365592956543 32 16 32 C 7.163440704345703 32 0 24.8365592956543 0 16 C 0 7.163440704345703 7.163440704345703 0 16 0 Z" stroke="none" fill="#a2a2a2"/>
    </g>
    <g id="group" transform="translate(554 16.991)">
      <path id="icon" d="M155.655,11.941a4.317,4.317,0,0,1-4.254-3.43,4.118,4.118,0,0,1,.514-3,4.1,4.1,0,0,1,.276-.436.884.884,0,0,1,1.2-.218.941.941,0,0,1,.367,1.213c-.121.25-.275.486-.376.743a2.361,2.361,0,0,0,2.04,3.227,2.4,2.4,0,0,0,1.944-.727q1.654-1.635,3.291-3.289a2.422,2.422,0,0,0,.059-3.392,2.322,2.322,0,0,0-2.081-.7,2.98,2.98,0,0,0-1.183.49.967.967,0,0,1-1.263-.3.93.93,0,0,1,.319-1.325A4.423,4.423,0,0,1,158.752,0a4.174,4.174,0,0,1,3.261,1.254,4.279,4.279,0,0,1,.412,5.617,4.869,4.869,0,0,1-.507.585c-1.032,1.039-2.071,2.071-3.105,3.108a4.547,4.547,0,0,1-2.621,1.344,5.324,5.324,0,0,1-.535.029" transform="translate(-145.283 0)"/>
      <path id="icon-2" data-name="icon" d="M7.3,51.944a4.289,4.289,0,0,1,3.789,6.847.88.88,0,0,1-1.2.25.91.91,0,0,1-.4-1.194c.113-.246.268-.474.368-.724a2.354,2.354,0,0,0-1.805-3.254,2.379,2.379,0,0,0-2.162.705Q4.256,56.2,2.643,57.848A2.381,2.381,0,0,0,2.269,60.9a2.409,2.409,0,0,0,2.364,1.063A3.514,3.514,0,0,0,5.8,61.477a.959.959,0,0,1,1.067.06.921.921,0,0,1,.109,1.377,2.99,2.99,0,0,1-1.117.668,4.184,4.184,0,0,1-4.606-.965A4,4,0,0,1,.009,59.875a4.357,4.357,0,0,1,1.344-3.459q1.573-1.589,3.177-3.148A4.177,4.177,0,0,1,7.3,51.944" transform="translate(0 -49.875)"/>
    </g>
  </g>
</svg>
