<svg xmlns="http://www.w3.org/2000/svg" xmlns:xlink="http://www.w3.org/1999/xlink" width="610.129" height="796.062" viewBox="0 0 610.129 796.062">
  <defs>
    <clipPath id="clip-path">
      <rect id="Rectangle_66" data-name="Rectangle 66" width="156.868" height="191.495" fill="none"/>
    </clipPath>
    <clipPath id="clip-path-3">
      <rect id="Rectangle_56" data-name="Rectangle 56" width="15.299" height="17.445" fill="none"/>
    </clipPath>
    <clipPath id="clip-path-4">
      <rect id="Rectangle_57" data-name="Rectangle 57" width="21.295" height="11.989" fill="none"/>
    </clipPath>
    <clipPath id="clip-path-5">
      <rect id="Rectangle_58" data-name="Rectangle 58" width="8.939" height="16.854" fill="none"/>
    </clipPath>
    <clipPath id="clip-path-6">
      <rect id="Rectangle_59" data-name="Rectangle 59" width="7.299" height="8.495" fill="none"/>
    </clipPath>
    <clipPath id="clip-path-7">
      <rect id="Rectangle_61" data-name="Rectangle 61" width="76.688" height="84.388" fill="none"/>
    </clipPath>
    <clipPath id="clip-path-9">
      <rect id="Rectangle_62" data-name="Rectangle 62" width="28.28" height="16.144" fill="none"/>
    </clipPath>
    <clipPath id="clip-path-10">
      <rect id="Rectangle_63" data-name="Rectangle 63" width="15.836" height="9.236" fill="none"/>
    </clipPath>
    <clipPath id="clip-path-11">
      <rect id="Rectangle_64" data-name="Rectangle 64" width="7.376" height="11.377" fill="none"/>
    </clipPath>
  </defs>
  <g id="Groupe_2568" data-name="Groupe 2568" transform="translate(-792.431 -134)">
    <g id="Layer_1" data-name="Layer 1" transform="translate(1330.431 -857.936)">
      <g id="Groupe_2525" data-name="Groupe 2525" transform="translate(-538 991.936)">
        <path id="Tracé_1063" data-name="Tracé 1063" d="M1756.56,303.336s24.333-2.755,32.548,18.88c6.474,17.052,1.617,42.268-31.469,65.55Z" transform="translate(-1227.633 -211.918)" fill="#fddd93"/>
        <path id="Tracé_1064" data-name="Tracé 1064" d="M1740.55,601.615s54.987-53.7,79.729-22.551c21.56,27.143-14.053,60.907-79.729,115.062Z" transform="translate(-1216.444 -397.908)" fill="#fddd93"/>
        <path id="Tracé_1065" data-name="Tracé 1065" d="M1786.841,1083.782l-40.307,52.454-5.983-12.249,3.966-59.967Z" transform="translate(-1216.444 -743.627)" fill="#fddd93"/>
        <path id="Tracé_1066" data-name="Tracé 1066" d="M518.626,967.682l-27.956.9L276.313,812.15,247.46,923.3l-90.35,178.5C150.732,1131.977,0,1363.661,0,1363.661H297.915l59.657-144.942c90.3-15.492,148.652-167.6,151.142-172.581,6.841-6.531,30.635-38.567,44.785-51.006,2.424-2.132,4.6-4.189,6.552-6.2l-41.421-21.247Z" transform="translate(0 -567.599)" fill="#fddd93"/>
        <g id="Groupe_2524" data-name="Groupe 2524" transform="translate(270.769)">
          <g id="Groupe_2523" data-name="Groupe 2523" transform="translate(5.194)">
            <path id="Tracé_1067" data-name="Tracé 1067" d="M951.836,0h187.532a35.385,35.385,0,0,1,35.369,35.369V455.22a35.385,35.385,0,0,1-35.369,35.369H951.839A35.385,35.385,0,0,1,916.47,455.22V35.369A35.385,35.385,0,0,1,951.839,0Z" transform="translate(-916.47)" fill="#663448"/>
            <path id="Screenshot_20230921-163437" d="M990.907,45.86h181.826a22.63,22.63,0,0,1,22.62,22.62V486.208a22.63,22.63,0,0,1-22.62,22.62H990.91a22.63,22.63,0,0,1-22.62-22.62V68.48a22.63,22.63,0,0,1,22.62-22.62Z" transform="translate(-952.686 -32.051)" fill="#f2c660"/>
          </g>
          <path id="Tracé_1069" data-name="Tracé 1069" d="M1772.18,341.64h2.069a3.479,3.479,0,0,1,3.478,3.478v43.773a3.479,3.479,0,0,1-3.478,3.478h-2.069V341.64Z" transform="translate(-1509.318 -238.767)" fill="#663448"/>
          <path id="Tracé_1070" data-name="Tracé 1070" d="M902.7,363.85h2.069V401.2H902.7a3.479,3.479,0,0,1-3.478-3.478v-30.4A3.479,3.479,0,0,1,902.7,363.85Z" transform="translate(-899.22 -254.289)" fill="#663448"/>
          <path id="Tracé_1071" data-name="Tracé 1071" d="M902.7,498.74h2.069v37.353H902.7a3.479,3.479,0,0,1-3.478-3.478v-30.4A3.479,3.479,0,0,1,902.7,498.74Z" transform="translate(-899.22 -348.562)" fill="#351b12"/>
        </g>
        <path id="Tracé_1072" data-name="Tracé 1072" d="M613.307,449.573c17.206-1.653,38.567,8,38.567,73.987,0,45-8.82,64.415-8.82,64.415a175.76,175.76,0,0,1-7.666,60.19s54.02,58.531,53.571,142.7C688.21,931.638,552.109,903.4,521.714,848.3c0,0-.527-100.2,3.842-149.648a89.228,89.228,0,0,1,5.8-24.577c18.636-47.736,32.77-92.159,42.689-112.22,37.085-74.993,19.049-110.332,39.262-112.277Z" transform="translate(-364.604 -314.083)" fill="#fddd93"/>
        <path id="Tracé_1073" data-name="Tracé 1073" d="M1725.878,882.538s-12.945-15.571-27.934-8.136-25.58,39.693.852,67.013c20.1,20.771,34.6,18.919,34.6,18.919s15.378-5.926,21.015-27.164S1725.878,882.538,1725.878,882.538Z" transform="translate(-1175.963 -609.701)" fill="#fddd93"/>
        <path id="Tracé_1074" data-name="Tracé 1074" d="M1730.108,1216.955s-18.745-5.059-28.022-26.525-2.511-42.725,17.585-49.874c13.141-5.026,46.378,26.257,45.026,41.828-1.12,12.9-6.224,23.6-17.947,35.691l-16.646-1.117Z" transform="translate(-1186.703 -796.739)" fill="#fddd93"/>
      </g>
    </g>
    <g id="Groupe_2559" data-name="Groupe 2559" transform="translate(1118.131 270.253)">
      <g id="Groupe_2558" data-name="Groupe 2558" clip-path="url(#clip-path)">
        <g id="Groupe_2557" data-name="Groupe 2557">
          <g id="Groupe_2556" data-name="Groupe 2556" clip-path="url(#clip-path)">
            <path id="Tracé_1084" data-name="Tracé 1084" d="M245.468,188.469c-9.5,14.891-23.1,4.989-23.1,4.989l1.906,17.445c25.179,0,21.193-22.434,21.193-22.434" transform="translate(-90.736 -76.904)" fill="#fddd93"/>
            <g id="Groupe_2531" data-name="Groupe 2531" transform="translate(131.633 116.554)" opacity="0.7" style="mix-blend-mode: multiply;isolation: isolate">
              <g id="Groupe_2530" data-name="Groupe 2530">
                <g id="Groupe_2529" data-name="Groupe 2529" clip-path="url(#clip-path-3)">
                  <path id="Tracé_1085" data-name="Tracé 1085" d="M224.275,214.342c5.947,0,10.267-1.253,13.394-3.168a42.592,42.592,0,0,0-1.686-11.535c-7.134,1.971-13.614-2.743-13.614-2.743Z" transform="translate(-222.37 -196.897)" fill="#ffdcdc"/>
                </g>
              </g>
            </g>
            <path id="Tracé_1086" data-name="Tracé 1086" d="M39.574,317.872c0,1.295,24.783,2.357,55.341,2.357s55.355-1.063,55.355-2.357c0-1.316-24.794-2.378-55.355-2.378s-55.341,1.063-55.341,2.378" transform="translate(-16.148 -128.735)" fill="#89806b"/>
            <path id="Tracé_1087" data-name="Tracé 1087" d="M78.024,292.573v14.348s2.644,1.6,10.777,1.6,10.466-1.6,10.466-1.6v-8.643Z" transform="translate(-31.837 -119.382)" fill="#fddd93"/>
            <path id="Tracé_1088" data-name="Tracé 1088" d="M87.49,309.1c-8.418,0-11.443-1.678-11.759-1.865a1.9,1.9,0,0,1-.919-1.631V291.26a1.9,1.9,0,1,1,3.8,0v13.063a31.485,31.485,0,0,0,8.875.979,29.411,29.411,0,0,0,8.57-.94v-7.4a1.9,1.9,0,1,1,3.8,0v8.644a1.9,1.9,0,0,1-.827,1.569c-.469.324-3.232,1.927-11.541,1.927" transform="translate(-30.527 -118.07)" fill="#663448"/>
            <path id="Tracé_1089" data-name="Tracé 1089" d="M154.192,297.4v8.644s2.336,1.6,10.467,1.6,10.793-1.6,10.793-1.6v-15.62Z" transform="translate(-62.917 -118.506)" fill="#fddd93"/>
            <path id="Tracé_1090" data-name="Tracé 1090" d="M163.344,308.233c-8.3,0-11.066-1.6-11.537-1.923a1.9,1.9,0,0,1-.836-1.573v-8.644a1.9,1.9,0,1,1,3.8,0v7.386a29.27,29.27,0,0,0,8.57.951,31.391,31.391,0,0,0,8.888-.983v-14.33a1.9,1.9,0,0,1,3.8,0v15.62a1.893,1.893,0,0,1-.922,1.633c-.317.188-3.353,1.863-11.768,1.863" transform="translate(-61.603 -117.198)" fill="#663448"/>
            <path id="Tracé_1091" data-name="Tracé 1091" d="M222.967,211.487a1.9,1.9,0,0,1-1.895-1.694l-1.9-17.443a1.9,1.9,0,0,1,3.012-1.74,17.07,17.07,0,0,0,8.873,2.86h0c4.521,0,8.387-2.468,11.5-7.339a1.9,1.9,0,0,1,3.469.69c.078.419,1.744,10.262-4.31,17.485-3.993,4.763-10.3,7.181-18.752,7.181m.379-15.929,1.321,12.091c6.41-.288,11.163-2.229,14.138-5.784a16.937,16.937,0,0,0,3.606-9.479,15.826,15.826,0,0,1-11.35,4.887h0a19.4,19.4,0,0,1-7.714-1.715" transform="translate(-89.428 -75.591)" fill="#663448"/>
            <path id="Tracé_1092" data-name="Tracé 1092" d="M23.159,198.991l-17.488.648s-8.125,16.719,5.561,34.313c0,0,8.929,4.849,22.456,3.232Z" transform="translate(-1.337 -81.197)" fill="#fddd93"/>
            <path id="Tracé_1093" data-name="Tracé 1093" d="M26.856,238.1h0c-10.755,0-17.579-3.638-17.865-3.793a1.948,1.948,0,0,1-.593-.5c-14.249-18.32-6.124-35.588-5.772-36.311a1.892,1.892,0,0,1,1.64-1.07l17.487-.652a1.894,1.894,0,0,1,1.9,1.394l10.529,38.2a1.9,1.9,0,0,1-.253,1.563,1.925,1.925,0,0,1-1.354.832,49.319,49.319,0,0,1-5.718.34m-15.722-6.971a38,38,0,0,0,15.72,3.169h0c1.013,0,2.035-.034,3.062-.11l-9.53-34.557-14.774.55c-1.417,3.723-5.191,16.9,5.52,30.948" transform="translate(0 -79.885)" fill="#663448"/>
            <g id="Groupe_2534" data-name="Groupe 2534" transform="translate(6.981 141.163)" opacity="0.7" style="mix-blend-mode: multiply;isolation: isolate">
              <g id="Groupe_2533" data-name="Groupe 2533">
                <g id="Groupe_2532" data-name="Groupe 2532" clip-path="url(#clip-path-4)">
                  <path id="Tracé_1094" data-name="Tracé 1094" d="M11.792,238.469a35.106,35.106,0,0,0,4.978,9.079,36.818,36.818,0,0,0,14.895,2.909h0q.707,0,1.419-.022l-3.3-11.966Z" transform="translate(-11.792 -238.469)" fill="#ffdcdc"/>
                </g>
              </g>
            </g>
            <path id="Tracé_1095" data-name="Tracé 1095" d="M90.848,136.719c-32.508,0-57.33,18.473-61.709,42.6,0,0-1.879,8.884-.517,14.408a92.21,92.21,0,0,0,3.988,11.725c8.8,18.633,30.779,31.805,58.238,31.805,35.9,0,62.5-22.49,62.5-50.262s-26.6-50.275-62.5-50.275" transform="translate(-11.477 -55.787)" fill="#fddd93"/>
            <g id="Groupe_2537" data-name="Groupe 2537" transform="translate(50.53 83.403)" style="mix-blend-mode: multiply;isolation: isolate">
              <g id="Groupe_2536" data-name="Groupe 2536">
                <g id="Groupe_2535" data-name="Groupe 2535" clip-path="url(#clip-path-5)">
                  <path id="Tracé_1096" data-name="Tracé 1096" d="M85.362,157.743s9.345.662,8.926-16.85l-7.26,2.3s4.458,6.642-1.665,14.551" transform="translate(-85.362 -140.893)" fill="#ffdcdc"/>
                </g>
              </g>
            </g>
            <g id="Groupe_2540" data-name="Groupe 2540" transform="translate(56.965 177.497)" opacity="0.7" style="mix-blend-mode: multiply;isolation: isolate">
              <g id="Groupe_2539" data-name="Groupe 2539">
                <g id="Groupe_2538" data-name="Groupe 2538" clip-path="url(#clip-path-6)">
                  <path id="Tracé_1097" data-name="Tracé 1097" d="M103.531,301.8l-7.3-1.957v8.5a32.976,32.976,0,0,0,7.3-.65Z" transform="translate(-96.232 -299.848)" fill="#ffdcdc"/>
                </g>
              </g>
            </g>
            <path id="Tracé_1098" data-name="Tracé 1098" d="M47.735,153.876c-11.354,8.016-18.84,19.223-21.08,31.561a1.9,1.9,0,0,0,1.531,2.21,1.74,1.74,0,0,0,.342.033,1.9,1.9,0,0,0,1.868-1.564c2.27-12.509,9.971-23.057,21.142-30.329L49.7,152.551c-.664.431-1.321.87-1.966,1.325" transform="translate(-10.864 -62.247)" fill="#663448"/>
            <path id="Tracé_1099" data-name="Tracé 1099" d="M178.441,176.746c-5.19-25.459-31.308-43.239-63.5-43.239a78.626,78.626,0,0,0-27.776,4.858L88.3,141.97a75.724,75.724,0,0,1,26.636-4.661c30.367,0,54.954,16.527,59.774,40.2a1.9,1.9,0,1,0,3.73-.758" transform="translate(-35.565 -54.477)" fill="#663448"/>
            <path id="Tracé_1100" data-name="Tracé 1100" d="M188.394,263.615a1.9,1.9,0,0,1-.829-3.614c17.845-8.686,28.505-24.135,28.505-41.323,0-.763-.022-1.538-.069-2.306a1.9,1.9,0,0,1,3.8-.213c.044.838.072,1.685.072,2.519,0,18.671-11.454,35.4-30.647,44.747a1.9,1.9,0,0,1-.828.191" transform="translate(-76.097 -87.471)" fill="#663448"/>
            <path id="Tracé_1101" data-name="Tracé 1101" d="M122.277,306.042A83.166,83.166,0,0,1,106.7,304.6a1.9,1.9,0,0,1,.713-3.737,80.74,80.74,0,0,0,30.666-.182,1.9,1.9,0,1,1,.761,3.723,82.953,82.953,0,0,1-16.558,1.641" transform="translate(-42.906 -122.674)" fill="#663448"/>
            <path id="Tracé_1102" data-name="Tracé 1102" d="M59.746,278a1.936,1.936,0,0,1-.832-.192c-11.9-5.8-21.221-14.851-26.241-25.483a1.9,1.9,0,1,1,3.436-1.619c4.653,9.845,13.344,18.258,24.473,23.681A1.9,1.9,0,0,1,59.746,278" transform="translate(-13.257 -101.856)" fill="#663448"/>
            <g id="Groupe_2546" data-name="Groupe 2546" transform="translate(61.091 92.234)" opacity="0.7">
              <g id="Groupe_2545" data-name="Groupe 2545">
                <g id="Groupe_2544" data-name="Groupe 2544" clip-path="url(#clip-path-7)">
                  <g id="Groupe_2543" data-name="Groupe 2543" style="mix-blend-mode: multiply;isolation: isolate">
                    <g id="Groupe_2542" data-name="Groupe 2542">
                      <g id="Groupe_2541" data-name="Groupe 2541" clip-path="url(#clip-path-7)">
                        <path id="Tracé_1103" data-name="Tracé 1103" d="M164.428,164.289a55.315,55.315,0,0,0-14.217-8.477,52.9,52.9,0,0,1,6.751,4.865c9.969,8.493,15.46,19.842,15.46,31.957s-5.491,23.464-15.459,31.95c-10.5,8.933-24.952,13.858-40.706,13.858a71.808,71.808,0,0,1-13.057-1.184,71.278,71.278,0,0,0,20.53,2.943c15.755,0,30.208-4.8,40.7-13.524,9.974-8.286,15.459-19.367,15.459-31.19s-5.486-22.907-15.46-31.2" transform="translate(-103.201 -155.812)" fill="#ffdcdc"/>
                      </g>
                    </g>
                  </g>
                </g>
              </g>
            </g>
            <path id="eye1" d="M50.58,193.224A4.619,4.619,0,1,0,55.2,188.6a4.612,4.612,0,0,0-4.617,4.62" transform="translate(-20.639 -76.959)" fill="#663448"/>
            <path id="Tracé_1105" data-name="Tracé 1105" d="M66.649,130.607v14.8l11.833,6.77a14.172,14.172,0,0,0,2.106-7.457,14.027,14.027,0,0,0-13.939-14.111" transform="translate(-27.196 -53.293)" fill="#fddd93"/>
            <path id="Tracé_1106" data-name="Tracé 1106" d="M77.169,152.768a1.871,1.871,0,0,1-1-.285,1.9,1.9,0,0,1-.62-2.615,12.269,12.269,0,0,0-8.312-18.519V144.1a1.9,1.9,0,0,1-3.8,0V129.3a1.9,1.9,0,0,1,1.9-1.9,16.041,16.041,0,0,1,13.45,24.465,1.9,1.9,0,0,1-1.619.9" transform="translate(-25.885 -51.984)" fill="#663448"/>
            <path id="Tracé_1107" data-name="Tracé 1107" d="M109.567,76.22A14.14,14.14,0,1,0,123.71,62.079,14.139,14.139,0,0,0,109.567,76.22" transform="translate(-44.708 -25.331)" fill="#ffd673"/>
            <g id="Groupe_2549" data-name="Groupe 2549" transform="translate(64.859 48.884)" style="mix-blend-mode: multiply;isolation: isolate">
              <g id="Groupe_2548" data-name="Groupe 2548">
                <g id="Groupe_2547" data-name="Groupe 2547" clip-path="url(#clip-path-9)">
                  <path id="Tracé_1108" data-name="Tracé 1108" d="M123.709,94.719a14.138,14.138,0,0,1-14-12.139,13.769,13.769,0,0,0-.144,2,14.14,14.14,0,1,0,28.28,0,13.684,13.684,0,0,0-.144-2,14.14,14.14,0,0,1-13.993,12.139" transform="translate(-109.567 -82.58)" fill="#ffd673"/>
                </g>
              </g>
            </g>
            <path id="Tracé_1109" data-name="Tracé 1109" d="M122.4,90.95a16.041,16.041,0,1,1,16.034-16.041A16.061,16.061,0,0,1,122.4,90.95m0-28.281a12.239,12.239,0,1,0,12.24,12.239A12.251,12.251,0,0,0,122.4,62.669" transform="translate(-43.397 -24.02)" fill="#663448"/>
            <g id="Groupe_2552" data-name="Groupe 2552" transform="translate(71.079 42.968)" style="mix-blend-mode: screen;isolation: isolate">
              <g id="Groupe_2551" data-name="Groupe 2551">
                <g id="Groupe_2550" data-name="Groupe 2550" clip-path="url(#clip-path-10)">
                  <path id="Tracé_1110" data-name="Tracé 1110" d="M128,75.219a7.937,7.937,0,0,1,7.8,6.605,8.469,8.469,0,0,0,.111-1.316,7.918,7.918,0,1,0-15.716,1.316,7.927,7.927,0,0,1,7.8-6.605" transform="translate(-120.074 -72.587)" fill="#ffd673"/>
                </g>
              </g>
            </g>
            <path id="Tracé_1111" data-name="Tracé 1111" d="M127.121,88.819a9.186,9.186,0,1,1,9.187-9.185,9.2,9.2,0,0,1-9.187,9.185m0-15.837a6.651,6.651,0,1,0,6.648,6.651,6.66,6.66,0,0,0-6.648-6.651" transform="translate(-48.12 -28.746)" fill="#663448"/>
            <path id="Tracé_1112" data-name="Tracé 1112" d="M128.3,29.145a1.266,1.266,0,0,1-1.264-1.268V1.267a1.267,1.267,0,1,1,2.534,0v26.61a1.27,1.27,0,0,1-1.269,1.268" transform="translate(-51.835)" fill="#663448"/>
            <path id="Tracé_1113" data-name="Tracé 1113" d="M136.858,35.7a1.27,1.27,0,0,1-1.264-1.268V17.322a1.265,1.265,0,1,1,2.529,0V34.428a1.264,1.264,0,0,1-1.265,1.268" transform="translate(-55.328 -6.551)" fill="#663448"/>
            <path id="Tracé_1114" data-name="Tracé 1114" d="M136.858,10.608a1.268,1.268,0,0,1-1.264-1.267V8.074a1.265,1.265,0,1,1,2.529,0V9.342a1.263,1.263,0,0,1-1.265,1.267" transform="translate(-55.328 -2.778)" fill="#663448"/>
            <g id="Groupe_2555" data-name="Groupe 2555" transform="translate(101.988 174.616)" opacity="0.7" style="mix-blend-mode: multiply;isolation: isolate">
              <g id="Groupe_2554" data-name="Groupe 2554">
                <g id="Groupe_2553" data-name="Groupe 2553" clip-path="url(#clip-path-11)">
                  <path id="Tracé_1115" data-name="Tracé 1115" d="M179.665,294.981l-7.376,2.421v8.956a34.163,34.163,0,0,0,7.376-.686Z" transform="translate(-172.289 -294.981)" fill="#ffdcdc"/>
                </g>
              </g>
            </g>
            <path id="Tracé_1116" data-name="Tracé 1116" d="M69.673,148.382a1.613,1.613,0,0,1-.68-.153,1.587,1.587,0,0,1-.751-2.113c4.269-8.979-3.33-15.1-3.659-15.352a1.586,1.586,0,0,1,1.95-2.5c.1.078,9.946,7.906,4.57,19.214a1.587,1.587,0,0,1-1.431.905" transform="translate(-26.106 -52.201)" fill="#663448"/>
            <path id="Tracé_1117" data-name="Tracé 1117" d="M106.805,153.364a2.536,2.536,0,0,1-.585-5,76.32,76.32,0,0,1,17.6-2.013h0a76.344,76.344,0,0,1,16.972,1.869,2.533,2.533,0,1,1-1.121,4.94,71.626,71.626,0,0,0-15.851-1.74h0a71.229,71.229,0,0,0-16.428,1.878,2.71,2.71,0,0,1-.589.07" transform="translate(-42.548 -59.716)" fill="#663448"/>
          </g>
        </g>
      </g>
    </g>
    <g id="Groupe_2560" data-name="Groupe 2560" transform="translate(305 -2)">
      <path id="Tracé_1140" data-name="Tracé 1140" d="M10,0H197a10,10,0,0,1,10,10V47a10,10,0,0,1-10,10H10A10,10,0,0,1,0,47V10A10,10,0,0,1,10,0Z" transform="translate(788 160)" fill="#fddd93"/>
      <path id="Tracé_1136" data-name="Tracé 1136" d="M815.051,272.722a3.022,3.022,0,1,0,0,6.044H827.14a3.022,3.022,0,1,0,0-6.044Z" transform="translate(153.762 -67.76)" fill="#663448"/>
      <rect id="Rectangle_68" data-name="Rectangle 68" width="139.547" height="0.795" transform="translate(844.378 199.1)" fill="#fdc785"/>
      <ellipse id="Ellipse_25" data-name="Ellipse 25" cx="17.602" cy="17.602" rx="17.602" ry="17.602" transform="translate(797.606 170.763)" fill="#663448"/>
      <path id="Tracé_1138" data-name="Tracé 1138" d="M529.264,273.7a2.584,2.584,0,0,0,0,5.168H556.3a2.584,2.584,0,0,0,0-5.168Z" transform="translate(317.698 -68.322)" fill="#fddd93"/>
      <path id="Tracé_1139" data-name="Tracé 1139" d="M453.441,217.509c.329-2.2-1.348-3.387-3.641-4.177l.744-2.984-1.817-.453L448,212.8c-.477-.119-.967-.231-1.455-.342l.729-2.924-1.815-.453-.744,2.983c-.4-.09-.783-.179-1.16-.273l0-.009-2.5-.625-.483,1.94s1.348.309,1.319.328a.966.966,0,0,1,.846,1.056l-.847,3.4a1.507,1.507,0,0,1,.189.061l-.191-.048-1.188,4.762a.661.661,0,0,1-.832.431c.018.026-1.32-.33-1.32-.33l-.9,2.08,2.364.589c.44.11.871.226,1.294.334l-.752,3.019,1.814.453.745-2.986c.5.135.976.259,1.447.376l-.742,2.972,1.816.453.752-3.012c3.1.586,5.427.35,6.406-2.451.79-2.255-.039-3.557-1.668-4.405a2.9,2.9,0,0,0,2.319-2.668Zm-4.15,5.819c-.562,2.256-4.359,1.037-5.591.73l1-4c1.231.307,5.179.916,4.594,3.268Zm.561-5.852c-.512,2.052-3.673,1.009-4.7.754l.9-3.626c1.026.256,4.328.733,3.794,2.873Z" transform="translate(368.849 -31.198)" fill="#fddd93"/>
      <path id="Tracé_1141" data-name="Tracé 1141" d="M-574.445,192.392l14.208-9.662,9.637,4.9,14.716-9.4,28.332,12.249,22.9-11.268,21.85,9.072,27.572-24.486" transform="translate(1419 2)" fill="none" stroke="#663448" stroke-linecap="round" stroke-width="1"/>
    </g>
  </g>
</svg>
